<svg height="495pt" viewBox="-27 0 495 495.99592" width="495pt" xmlns="http://www.w3.org/2000/svg"><path d="m232.496094 183.996094h-32c-70.691406 0-128 57.308594-128 128v176h288v-176c0-70.691406-57.304688-128-128-128zm-16 280-48-168 32-24-24-32 40-32 40 32-24 32 32 24zm64-112" fill="#57a4ff"/><g fill="#004fac"><path d="m331.128906 186.898438c26.078125-6.71875 46.511719-26.960938 53.480469-52.972657 6.964844-26.011719-.617187-53.757812-19.84375-72.613281-19.226563-18.851562-47.117187-25.886719-72.988281-18.414062-15.601563-26.320313-43.816406-42.585938-74.414063-42.89453175-30.601562-.30859425-59.136719 15.38671875-75.265625 41.39062475-4.480468-.886719-9.03125-1.355469-13.601562-1.398437-37.589844-.007813-69.320313 27.949218-74.050782 65.242187-4.726562 37.292969 19.015626 72.28125 55.421876 81.660157-61.15625 2.863281-109.289063 53.234374-109.371094 114.457031v146.640625c0 4.417968 3.582031 8 8 8h56v32c0 4.417968 3.582031 8 8 8h288c4.421875 0 8-3.582032 8-8v-32h64c4.421875 0 8-3.582032 8-8v-146.640625c-.078125-61.222657-48.210938-111.59375-109.367188-114.457031zm-98.632812-10.902344h-32c-13.5 0-26.925782 2.011718-39.832032 5.976562 7.320313-3.515625 14.019532-8.203125 19.832032-13.871094 24.742187 11.410157 53.425781 10.40625 77.304687-2.714843 9.597657 10.398437 21.964844 17.835937 35.648438 21.433593-2.191407.113282-4.429688.304688-6.695313.550782-17.105468-7.503906-35.578125-11.375-54.257812-11.375zm80-120c26.488281-.015625 49.699218 17.710937 56.660156 43.265625 6.957031 25.554687-4.070312 52.605469-26.90625 66.015625-22.839844 13.410156-51.832031 9.859375-70.761719-8.664063 29.582031-23.640625 40.6875-63.570312 27.5625-99.089843 4.410157-1.023438 8.921875-1.535157 13.445313-1.527344zm-96-40c27.414062-.101563 52.46875 15.476562 64.507812 40.105468v.046876c16.273438 32.839843 5.183594 72.667968-25.722656 92.367187-25.816406 16.570313-59.296875 14.949219-83.394531-4.03125-24.097657-18.980469-33.511719-51.152344-23.453125-80.132813 10.0625-28.976562 37.386718-48.390624 68.0625-48.355468zm-146.636719 98.640625c.035156-32.371094 26.265625-58.605469 58.636719-58.640625 1.992187 0 3.9375.191406 5.890625.382812-14.515625 37.601563-1.550781 80.257813 31.429687 103.425782-17.46875 14.550781-41.792968 17.664062-62.367187 7.980468s-33.671875-30.410156-33.589844-53.148437zm-53.363281 325.359375v-138.640625c.035156-54.476563 44.167968-98.640625 98.640625-98.71875h4.855469c-34.847657 25.542969-55.453126 66.152343-55.496094 109.359375v128zm336 40h-272v-168c.078125-66.242188 53.757812-119.925782 120-120h32c66.246094.074218 119.925781 53.757812 120 120zm72-40h-56v-128c-.039063-43.207032-20.644532-83.816406-55.492188-109.359375h12.855469c54.472656.078125 98.601563 44.242187 98.636719 98.71875zm0 0"/><path d="m243.699219 270.394531 19.199219-25.597656c2.59375-3.457031 1.972656-8.347656-1.402344-11.050781l-40-32c-2.921875-2.339844-7.074219-2.339844-10 0l-40 32c-3.371094 2.703125-3.992188 7.59375-1.398438 11.050781l19.199219 25.597656-25.597656 19.203125c-2.648438 1.988282-3.796875 5.40625-2.890625 8.589844l48 168c.988281 3.425781 4.125 5.789062 7.6875 5.789062 3.566406 0 6.703125-2.363281 7.691406-5.789062l48-168c.90625-3.183594-.242188-6.601562-2.890625-8.589844zm-27.203125 164.480469-38.796875-135.78125 27.597656-20.699219c3.535156-2.648437 4.253906-7.664062 1.601563-11.199219l-19.351563-25.792968 28.949219-23.167969 28.953125 23.203125-19.351563 25.757812c-2.652344 3.535157-1.933594 8.550782 1.601563 11.199219l27.597656 20.699219zm0 0"/><path d="m336.496094 343.996094h-56c-4.417969 0-8 3.582031-8 8 0 4.417968 3.582031 8 8 8h56c4.421875 0 8-3.582032 8-8 0-4.417969-3.578125-8-8-8zm0 0"/></g></svg>