<svg id="Layer_1" enable-background="new 0 0 128 128" height="512" viewBox="0 0 128 128" width="512" xmlns="http://www.w3.org/2000/svg"><path d="m20.238 31.923h2.163c.553 0 1-.448 1-1s-.447-1-1-1h-2.163c-.553 0-1 .448-1 1s.448 1 1 1z" fill="#e6e7e8"/><path d="m47.688 31.923h2.163c.553 0 1-.448 1-1s-.447-1-1-1h-2.163c-.553 0-1 .448-1 1s.447 1 1 1z" fill="#e6e7e8"/><path d="m25.398 22.69c.195.195.451.293.707.293s.512-.098.707-.293c.391-.391.391-1.023 0-1.414l-1.529-1.529c-.391-.391-1.023-.391-1.414 0s-.391 1.023 0 1.414z" fill="#e6e7e8"/><path d="m44.692 39.157c-.391-.391-1.023-.391-1.414 0s-.391 1.023 0 1.414l1.529 1.529c.195.195.451.293.707.293s.512-.098.707-.293c.391-.391.391-1.023 0-1.414z" fill="#e6e7e8"/><path d="m24.575 42.393c.256 0 .512-.098.707-.293l1.529-1.529c.391-.391.391-1.023 0-1.414s-1.023-.391-1.414 0l-1.529 1.529c-.391.391-.391 1.023 0 1.414.196.195.451.293.707.293z" fill="#e6e7e8"/><path d="m43.984 22.983c.256 0 .512-.098.707-.293l1.529-1.529c.391-.391.391-1.023 0-1.414s-1.023-.391-1.414 0l-1.529 1.529c-.391.391-.391 1.023 0 1.414.196.196.452.293.707.293z" fill="#e6e7e8"/><path d="m35.045 19.28c.553 0 1-.448 1-1v-2.163c0-.552-.447-1-1-1s-1 .448-1 1v2.163c0 .552.447 1 1 1z" fill="#e6e7e8"/><path d="m125.756 114.883h-5.605v-1.401c0-2.619-2.131-4.749-4.749-4.749h-2.889v-80.089c0-2.406-1.958-4.364-4.364-4.364h-22.883c-2.406 0-4.364 1.958-4.364 4.364v31.32h-30.051v-9.949c0-3.641-2.962-6.602-6.602-6.602h-4.504v-.76c0-.366-.136-.698-.354-.96l.025-.083c.387-1.276 1.107-2.372 2.085-3.169 2.395-1.952 3.768-4.84 3.768-7.925 0-5.549-4.512-10.135-10.059-10.223-2.731-.056-5.318 1.007-7.304 2.958-1.984 1.95-3.081 4.523-3.086 7.247-.005 3.067 1.35 5.947 3.718 7.902 1.008.832 1.753 1.971 2.159 3.294-.217.262-.354.593-.354.959v.76h-4.503c-3.641 0-6.603 2.961-6.603 6.602v58.718h-3.671c-2.618 0-4.749 2.13-4.749 4.749v1.401h-4.573c-.553 0-1 .448-1 1s.447 1 1 1h5.574 1.031 106.301 6.605c.553 0 1-.448 1-1s-.446-1-.999-1z" fill="#e6e7e8"/><path d="m37.49 92.677c0-1.28-.378-2.469-1.021-3.472v-27.444c0-2.649 2.148-4.797 4.797-4.797h4.584v-10.949c0-3.094-2.508-5.602-5.602-5.602h-5.503v.484c0 1.335-.951 2.447-2.212 2.698v.28c0 .556-.451 1.007-1.007 1.007h-.964c-.556 0-1.007-.451-1.007-1.007v-.28c-1.261-.252-2.212-1.364-2.212-2.699v-.484h-5.503c-3.094 0-5.602 2.508-5.602 5.602v59.718h20.231v-9.583c.644-1.002 1.021-2.192 1.021-3.472z" fill="#0089ef"/><path d="m24.599 92.677c0-1.262.368-2.435.994-3.429v-40.338c0-.325-.264-.589-.589-.589h-1.074c-.325 0-.589.264-.589.589v51.203c0 .325.264.589.589.589h1.075c.325 0 .589-.264.589-.589v-4.007c-.627-.994-.995-2.167-.995-3.429z" fill="#6dc9f7"/><path d="m31.045 99.123c-.385 0-.76-.04-1.127-.105v1.095c0 .325.264.589.589.589h1.075c.325 0 .589-.264.589-.589v-1.095c-.366.065-.741.105-1.126.105z" fill="#6dc9f7"/><path d="m31.045 86.232c.385 0 .76.04 1.126.105v-37.427c0-.325-.264-.589-.589-.589h-1.075c-.325 0-.589.264-.589.589v37.426c.367-.064.742-.104 1.127-.104z" fill="#6dc9f7"/><path d="m38.749 57.694v-8.784c0-.325-.264-.589-.589-.589h-1.075c-.325 0-.589.264-.589.589v12.589c.088-1.611.96-3.004 2.253-3.805z" fill="#6dc9f7"/><path d="m104.149 21.28h-22.884c-1.858 0-3.364 1.506-3.364 3.364v32.32h.911c2.649 0 4.797 2.148 4.797 4.797v43.972h23.904v-81.089c0-1.858-1.506-3.364-3.364-3.364z" fill="#0089ef"/><g fill="#6dc9f7"><path d="m86.566 26.923h-2.527c-.434 0-.786.352-.786.785v5.566c0 .434.352.785.786.785h2.527c.434 0 .786-.352.786-.785v-5.566c-.001-.433-.353-.785-.786-.785z"/><path d="m93.971 26.923h-2.527c-.434 0-.785.352-.785.785v5.566c0 .434.352.785.785.785h2.527c.434 0 .785-.352.785-.785v-5.566c0-.433-.352-.785-.785-.785z"/><path d="m101.375 26.923h-2.527c-.434 0-.785.352-.785.785v5.566c0 .434.352.785.785.785h2.527c.434 0 .785-.352.785-.785v-5.566c.001-.433-.351-.785-.785-.785z"/><path d="m86.566 38.23h-2.527c-.434 0-.786.352-.786.785v5.566c0 .434.352.785.786.785h2.527c.434 0 .786-.352.786-.785v-5.566c-.001-.433-.353-.785-.786-.785z"/><path d="m93.971 38.23h-2.527c-.434 0-.785.352-.785.785v5.566c0 .434.352.785.785.785h2.527c.434 0 .785-.352.785-.785v-5.566c0-.433-.352-.785-.785-.785z"/><path d="m101.375 38.23h-2.527c-.434 0-.785.352-.785.785v5.566c0 .434.352.785.785.785h2.527c.434 0 .785-.352.785-.785v-5.566c.001-.433-.351-.785-.785-.785z"/><path d="m86.566 49.537h-2.527c-.434 0-.786.352-.786.785v5.566c0 .434.352.785.786.785h2.527c.434 0 .786-.352.786-.785v-5.566c-.001-.433-.353-.785-.786-.785z"/><path d="m93.971 49.537h-2.527c-.434 0-.785.352-.785.785v5.566c0 .434.352.785.785.785h2.527c.434 0 .785-.352.785-.785v-5.566c0-.433-.352-.785-.785-.785z"/><path d="m101.375 49.537h-2.527c-.434 0-.785.352-.785.785v5.566c0 .434.352.785.785.785h2.527c.434 0 .785-.352.785-.785v-5.566c.001-.433-.351-.785-.785-.785z"/><path d="m93.971 60.844h-2.527c-.434 0-.785.352-.785.785v5.566c0 .434.352.785.785.785h2.527c.434 0 .785-.352.785-.785v-5.565c0-.434-.352-.786-.785-.786z"/><path d="m101.375 60.844h-2.527c-.434 0-.785.352-.785.785v5.566c0 .434.352.785.785.785h2.527c.434 0 .785-.352.785-.785v-5.565c.001-.434-.351-.786-.785-.786z"/><path d="m93.971 72.151h-2.527c-.434 0-.785.352-.785.785v5.566c0 .434.352.785.785.785h2.527c.434 0 .785-.352.785-.785v-5.566c0-.433-.352-.785-.785-.785z"/><path d="m101.375 72.151h-2.527c-.434 0-.785.352-.785.785v5.566c0 .434.352.785.785.785h2.527c.434 0 .785-.352.785-.785v-5.566c.001-.433-.351-.785-.785-.785z"/><path d="m92.707 86.232c.717 0 1.405.122 2.049.338v-2.327c0-.434-.352-.785-.785-.785h-2.527c-.434 0-.785.352-.785.785v2.327c.644-.216 1.331-.338 2.048-.338z"/><path d="m101.375 83.458h-2.527c-.434 0-.785.352-.785.785v4.849c.308.458.553.961.735 1.492.017.001.032.01.05.01h2.527c.434 0 .785-.352.785-.785v-5.566c.001-.433-.351-.785-.785-.785z"/></g><path d="m40.269 26.516c0-5.044-4.049-9.143-9.075-9.223-5.073-.081-9.365 4.132-9.374 9.206-.005 2.871 1.302 5.435 3.354 7.13 1.192.984 2.041 2.322 2.489 3.801l.216.714h6.329l.249-.823c.432-1.426 1.255-2.713 2.41-3.654 2.077-1.692 3.402-4.266 3.402-7.151z" fill="#d4fbff"/><path d="m31.825 21.802.725 2.23c.11.338.425.567.78.567h2.345c.794 0 1.125 1.017.482 1.484l-1.897 1.378c-.287.209-.408.579-.298.917l.725 2.23c.245.756-.619 1.384-1.262.917l-1.897-1.378c-.287-.209-.677-.209-.964 0l-1.897 1.378c-.643.467-1.508-.161-1.262-.917l.725-2.23c.11-.338-.01-.708-.298-.917l-1.897-1.378c-.643-.467-.312-1.484.482-1.484h2.345c.355 0 .67-.229.78-.567l.725-2.23c.243-.755 1.312-.755 1.558 0z" fill="#fa759e"/><path d="m27.853 38.143c-.281 0-.509.228-.509.509v2.244c0 1.335.951 2.447 2.212 2.699v.28c0 .556.451 1.007 1.007 1.007h.964c.556 0 1.007-.451 1.007-1.007v-.28c1.261-.252 2.212-1.363 2.212-2.698v-2.244c0-.281-.228-.509-.509-.509h-6.384z" fill="#fa759e"/><path d="m78.813 56.964h-37.547c-2.649 0-4.797 2.148-4.797 4.797v27.445c.643 1.003 1.021 2.192 1.021 3.472s-.378 2.469-1.021 3.472v9.583h47.14v-43.972c0-2.65-2.147-4.797-4.796-4.797z" fill="#fff"/><path d="m78.813 59.964h-37.547c-2.649 0-4.797 2.148-4.797 4.797v24.445c.643 1.003 1.021 2.192 1.021 3.472s-.378 2.469-1.021 3.472v9.583h47.14v-40.972c0-2.65-2.147-4.797-4.796-4.797z" fill="#6dc9f7"/><path d="m115.15 111.883h-107.331v-2.401c0-2.071 1.678-3.749 3.749-3.749h99.834c2.071 0 3.749 1.678 3.749 3.749v2.401z" fill="#fa759e"/><path d="m31.045 86.232c-3.56 0-6.446 2.886-6.446 6.445 0 3.56 2.886 6.446 6.446 6.446s6.445-2.886 6.445-6.446c0-3.559-2.886-6.445-6.445-6.445z" fill="#d4fbff"/><circle cx="92.707" cy="92.677" fill="#d4fbff" r="6.446"/><path d="m16.238 27.923h2.163c.553 0 1-.448 1-1s-.447-1-1-1h-2.163c-.553 0-1 .448-1 1s.447 1 1 1z" fill="#3a2c60"/><path d="m43.688 27.923h2.162c.553 0 1-.448 1-1s-.447-1-1-1h-2.162c-.553 0-1 .448-1 1s.448 1 1 1z" fill="#3a2c60"/><path d="m21.397 18.69c.195.195.451.293.707.293s.512-.098.707-.293c.391-.391.391-1.023 0-1.414l-1.529-1.529c-.391-.391-1.023-.391-1.414 0s-.391 1.023 0 1.414z" fill="#3a2c60"/><path d="m40.692 35.156c-.391-.391-1.023-.391-1.414 0-.391.39-.391 1.023 0 1.414l1.529 1.53c.195.195.451.293.707.293s.512-.098.707-.293c.391-.39.391-1.023 0-1.414z" fill="#3a2c60"/><path d="m20.575 38.393c.256 0 .512-.098.707-.293l1.529-1.53c.391-.391.391-1.024 0-1.414-.391-.391-1.023-.391-1.414 0l-1.529 1.53c-.391.391-.391 1.024 0 1.414.195.195.451.293.707.293z" fill="#3a2c60"/><path d="m39.985 18.983c.256 0 .512-.098.707-.293l1.529-1.529c.391-.391.391-1.023 0-1.414s-1.023-.391-1.414 0l-1.529 1.529c-.391.391-.391 1.023 0 1.414.196.196.451.293.707.293z" fill="#3a2c60"/><path d="m31.045 15.28c.553 0 1-.448 1-1v-2.163c0-.552-.447-1-1-1s-1 .448-1 1v2.163c0 .553.447 1 1 1z" fill="#3a2c60"/><path d="m51.427 106.733h5.825c.553 0 1-.448 1-1s-.447-1-1-1h-5.825c-.553 0-1 .448-1 1s.447 1 1 1z" fill="#3a2c60"/><path d="m121.757 110.882h-5.606v-1.4c0-2.619-2.131-4.749-4.749-4.749h-2.888v-80.089c0-2.406-1.958-4.364-4.364-4.364h-22.884c-2.406 0-4.364 1.958-4.364 4.364v31.32h-30.052v-9.949c0-3.641-2.962-6.602-6.602-6.602h-4.503v-.76c0-.367-.137-.699-.355-.96l.025-.083c.387-1.276 1.107-2.372 2.085-3.169 2.395-1.952 3.769-4.841 3.769-7.925 0-5.549-4.513-10.135-10.06-10.223-2.728-.052-5.318 1.007-7.304 2.958-1.984 1.95-3.081 4.523-3.086 7.247-.005 3.066 1.35 5.946 3.718 7.903 1.008.831 1.753 1.971 2.159 3.294-.217.262-.354.593-.354.959v.76h-4.503c-3.641 0-6.603 2.961-6.603 6.602v58.718h-3.67c-2.618 0-4.749 2.13-4.749 4.749v1.4h-4.573c-.553 0-1 .448-1 1s.447 1 1 1h5.575 1.03 106.301 6.606c.553 0 1-.448 1-1s-.447-1.001-.999-1.001zm-40.491-88.603h22.884c1.304 0 2.364 1.061 2.364 2.364v80.089h-12.807v-4.685c3.633-.491 6.445-3.605 6.445-7.371 0-4.105-3.34-7.445-7.445-7.445s-7.445 3.34-7.445 7.445c0 3.766 2.812 6.879 6.445 7.371v4.685h-7.098v-42.971c0-3.167-2.553-5.745-5.708-5.793v-31.324c0-1.304 1.061-2.365 2.365-2.365zm11.441 75.844c-3.003 0-5.445-2.443-5.445-5.446 0-3.002 2.442-5.445 5.445-5.445s5.445 2.443 5.445 5.445c0 3.003-2.442 5.446-5.445 5.446zm-62.956-55.509c-.815-.163-1.407-.885-1.407-1.718v-1.753h5.402v1.753c0 .832-.592 1.555-1.408 1.718-.467.093-.804.504-.804.98l-.007.288-.972-.007v-.28c.001-.477-.336-.887-.804-.981zm-6.931-16.113c.004-2.184.888-4.251 2.487-5.823 1.601-1.572 3.634-2.424 5.871-2.385 4.461.071 8.091 3.76 8.091 8.223 0 2.48-1.105 4.804-3.032 6.375-1.287 1.049-2.233 2.481-2.735 4.139l-.034.114h-4.846l-.001-.003c-.52-1.713-1.49-3.194-2.81-4.282-1.905-1.575-2.995-3.893-2.991-6.358zm-5.582 19.514c0-2.538 2.064-4.602 4.603-4.602h4.542c.181 1.3 1.034 2.413 2.228 2.929.211.882 1.006 1.541 1.952 1.541h.965c.946 0 1.741-.658 1.952-1.541 1.194-.516 2.046-1.63 2.228-2.929h4.542c2.537 0 4.602 2.064 4.602 4.602v9.949h-3.584c-3.196 0-5.797 2.601-5.797 5.797v24.943c-1.239-.92-2.767-1.471-4.425-1.471-4.105 0-7.445 3.34-7.445 7.445 0 3.766 2.812 6.879 6.445 7.371v4.685h-12.808zm13.807 52.108c-3.003 0-5.445-2.443-5.445-5.446 0-3.002 2.442-5.445 5.445-5.445s5.445 2.443 5.445 5.445c0 3.003-2.442 5.446-5.445 5.446zm1 1.925c1.272-.172 2.44-.665 3.425-1.396v6.081h-3.425zm-23.226 10.834v-1.4c0-1.516 1.233-2.749 2.749-2.749h4.67 29.612c.553 0 1-.448 1-1 0-.552-.447-1-1-1h-8.38v-8.311c.645-1.102 1.021-2.379 1.021-3.744s-.376-2.643-1.021-3.744v-27.173c0-2.094 1.703-3.797 3.797-3.797h37.546c2.094 0 3.797 1.704 3.797 3.797v42.972h-19.783c-.553 0-1 .448-1 1s.447 1 1 1h15.074 29.612 3.888c1.516 0 2.749 1.233 2.749 2.749v1.4h-105.301z" fill="#3a2c60"/><path d="m50.317 70.997h-3.357c-.613 0-1.109.497-1.109 1.109v3.357c0 .613.497 1.109 1.109 1.109h3.357c.613 0 1.109-.497 1.109-1.109v-3.357c.001-.613-.496-1.109-1.109-1.109z" fill="#d4fbff"/><path d="m61.718 70.997h-3.357c-.613 0-1.109.497-1.109 1.109v3.357c0 .613.497 1.109 1.109 1.109h3.357c.613 0 1.109-.497 1.109-1.109v-3.357c0-.613-.496-1.109-1.109-1.109z" fill="#d4fbff"/><path d="m73.119 70.997h-3.357c-.613 0-1.109.497-1.109 1.109v3.357c0 .613.497 1.109 1.109 1.109h3.357c.613 0 1.109-.497 1.109-1.109v-3.357c0-.613-.496-1.109-1.109-1.109z" fill="#d4fbff"/><path d="m50.317 80.67h-3.357c-.613 0-1.109.497-1.109 1.109v3.357c0 .613.497 1.109 1.109 1.109h3.357c.613 0 1.109-.497 1.109-1.109v-3.357c.001-.612-.496-1.109-1.109-1.109z" fill="#d4fbff"/><path d="m61.718 80.67h-3.357c-.613 0-1.109.497-1.109 1.109v3.357c0 .613.497 1.109 1.109 1.109h3.357c.613 0 1.109-.497 1.109-1.109v-3.357c0-.612-.496-1.109-1.109-1.109z" fill="#d4fbff"/><path d="m73.119 80.67h-3.357c-.613 0-1.109.497-1.109 1.109v3.357c0 .613.497 1.109 1.109 1.109h3.357c.613 0 1.109-.497 1.109-1.109v-3.357c0-.612-.496-1.109-1.109-1.109z" fill="#d4fbff"/><path d="m50.317 90.343h-3.357c-.613 0-1.109.497-1.109 1.109v3.357c0 .613.497 1.109 1.109 1.109h3.357c.613 0 1.109-.497 1.109-1.109v-3.357c.001-.612-.496-1.109-1.109-1.109z" fill="#d4fbff"/><path d="m61.718 90.343h-3.357c-.613 0-1.109.497-1.109 1.109v3.357c0 .613.497 1.109 1.109 1.109h3.357c.613 0 1.109-.497 1.109-1.109v-3.357c0-.612-.496-1.109-1.109-1.109z" fill="#d4fbff"/><path d="m73.119 90.343h-3.357c-.613 0-1.109.497-1.109 1.109v3.357c0 .613.497 1.109 1.109 1.109h3.357c.613 0 1.109-.497 1.109-1.109v-3.357c0-.612-.496-1.109-1.109-1.109z" fill="#d4fbff"/></svg>