<?xml version="1.0"?>
<svg xmlns="http://www.w3.org/2000/svg" viewBox="0 0 256 256" width="512" height="512"><path d="M132.065,199.7a70.935,70.935,0,0,1-50.317-20.809,2.5,2.5,0,1,1,3.535-3.535,66.16,66.16,0,1,0,93.565-93.565,2.5,2.5,0,1,1,3.535-3.535A71.127,71.127,0,0,1,132.065,199.7Z" fill="#ebe7f2"/><path d="M164.078,155.231H142.812a8.547,8.547,0,0,1-8.537-8.537V131.911c0-7.776.279-12.971.85-15.88a19.328,19.328,0,0,1,5.327-9.475,23.364,23.364,0,0,1,10.584-6.176,59.365,59.365,0,0,1,12.745-1.461,8.541,8.541,0,0,1,8.833,8.533v1.486a8.614,8.614,0,0,1-6.916,8.376,8.616,8.616,0,0,0-2.462.844,4.6,4.6,0,0,0-2.377,2.36,7.447,7.447,0,0,0-.264,1.109,3.557,3.557,0,0,0,.785,2.911,3.474,3.474,0,0,0,2.7,1.258,8.546,8.546,0,0,1,8.536,8.537v12.361A8.546,8.546,0,0,1,164.078,155.231Zm0-51.318-.127,0a55.95,55.95,0,0,0-11.6,1.287,18.376,18.376,0,0,0-8.311,4.829,14.444,14.444,0,0,0-4.015,6.958c-.5,2.558-.757,7.576-.757,14.922v14.783a3.541,3.541,0,0,0,3.537,3.537h21.266a3.54,3.54,0,0,0,3.536-3.537V134.333a3.541,3.541,0,0,0-3.536-3.537,8.551,8.551,0,0,1-8.41-10.024,12.121,12.121,0,0,1,.426-1.767,9.249,9.249,0,0,1,4.7-5.21,13.527,13.527,0,0,1,3.905-1.381,3.552,3.552,0,0,0,2.914-3.476v-1.486a3.541,3.541,0,0,0-3.532-3.539ZM118.89,155.231H97.556a8.546,8.546,0,0,1-8.536-8.537V131.911c0-7.773.278-12.968.85-15.88a19.325,19.325,0,0,1,5.326-9.475,23.375,23.375,0,0,1,10.584-6.176A59.787,59.787,0,0,1,118.6,98.918a8.544,8.544,0,0,1,8.831,8.533v1.477a8.6,8.6,0,0,1-6.937,8.38,8.68,8.68,0,0,0-2.509.85,5.126,5.126,0,0,0-2.316,2.38,7.125,7.125,0,0,0-.263,1.066,3.559,3.559,0,0,0,.771,2.923,3.522,3.522,0,0,0,2.708,1.269,8.548,8.548,0,0,1,8.546,8.537v12.361A8.546,8.546,0,0,1,118.89,155.231Zm0-51.319-.125,0A56.282,56.282,0,0,0,107.1,105.2a18.394,18.394,0,0,0-8.312,4.829,14.449,14.449,0,0,0-4.014,6.958c-.5,2.562-.757,7.58-.757,14.922v14.783a3.539,3.539,0,0,0,3.536,3.537H118.89a3.54,3.54,0,0,0,3.536-3.537V134.333a3.541,3.541,0,0,0-3.536-3.537,8.55,8.55,0,0,1-8.409-10.082,11.84,11.84,0,0,1,.432-1.732,9.564,9.564,0,0,1,4.566-5.152,13.6,13.6,0,0,1,4.033-1.426,3.587,3.587,0,0,0,2.914-3.476v-1.477a3.543,3.543,0,0,0-3.533-3.539Z" fill="#65c1d6"/><path d="M130.817,40.873a86.3,86.3,0,0,0-86.2,86.2A85.309,85.309,0,0,0,53,164.159L39.085,211.928a2.5,2.5,0,0,0,2.4,3.2,2.473,2.473,0,0,0,.7-.1L87.77,201.749A86.2,86.2,0,1,0,130.817,40.873Zm0,167.4A81.082,81.082,0,0,1,89.383,196.9a2.507,2.507,0,0,0-1.978-.252L45.159,208.953l12.909-44.319a2.494,2.494,0,0,0-.157-1.8,80.394,80.394,0,0,1-8.292-35.761,81.2,81.2,0,1,1,81.2,81.2Z" fill="#846f75"/></svg>
