<svg id="_x33_0" enable-background="new 0 0 64 64" height="512" viewBox="0 0 64 64" width="512" xmlns="http://www.w3.org/2000/svg"><g><path d="m20 9c-6.065 0-11 4.935-11 11 0 2.167.639 4.184 1.725 5.889 1.348-1.956 3.292-3.432 5.506-4.227-1.359-1.101-2.231-2.781-2.231-4.662 0-3.309 2.691-6 6-6s6 2.691 6 6c0 1.881-.872 3.561-2.231 4.662 2.214.795 4.158 2.271 5.506 4.227 1.086-1.705 1.725-3.722 1.725-5.889 0-6.065-4.935-11-11-11z"/><path d="m35 50v-14c0-1.302.839-2.402 2-2.816v-8.369c-1.161-.414-2-1.514-2-2.816v-13.999c0-1.302.839-2.402 2-2.816v-2.184h-27v7h-7v51h34v-8.184c-1.161-.414-2-1.514-2-2.816zm-29-14h20v6h-20zm-1 9h22v2h-22zm6 14h-6v-2h6zm8 0h-6v-2h6zm8 0h-6v-2h6zm4-4h-26v-2h26zm0-4h-26v-2h26zm-11-18c-7.168 0-13-5.832-13-13s5.832-13 13-13 13 5.832 13 13-5.832 13-13 13z"/><circle cx="20" cy="17" r="4"/><path d="m23.077 23.557c-.978-.349-2.013-.557-3.077-.557s-2.099.208-3.077.557l3.077 3.038z"/><path d="m24.987 24.482-4.987 4.923-4.987-4.923c-1.208.775-2.224 1.835-2.967 3.095 2.005 2.104 4.825 3.423 7.954 3.423s5.949-1.319 7.954-3.423c-.742-1.261-1.759-2.32-2.967-3.095z"/><path d="m60.002 35h-22.002c-.551 0-1 .449-1 1v14c0 .551.449 1 1 1h11.414l3.879 3.879c.238.238.707.045.707-.293v-3.586h6c.551 0 1-.449 1-1v-14c0-.551-.447-1-.998-1zm-5.295 12.293-1.414 1.414-4.293-4.293-4.293 4.293-1.414-1.414 4.293-4.293-4.293-4.293 1.414-1.414 4.293 4.293 4.293-4.293 1.414 1.414-4.293 4.293z"/><path d="m8 4.414-3.586 3.586h3.586z"/><path d="m60 7h-22c-.551 0-1 .449-1 1v14c0 .551.449 1 1 1h6v3.586c0 .338.468.531.707.293l3.879-3.879h11.414c.551 0 1-.449 1-1v-14c0-.551-.449-1-1-1zm-14.033 14.381-3.674-3.674 1.414-1.414 2.326 2.326 10.294-9.359 1.346 1.479z"/></g></svg>