<svg id="Layer_1" enable-background="new 0 0 256 256" height="512" viewBox="0 0 256 256" width="512" xmlns="http://www.w3.org/2000/svg"><g><path d="m103.904 187.061h-32.067c-1.381 0-2.5-1.119-2.5-2.5s1.119-2.5 2.5-2.5h32.067c1.381 0 2.5 1.119 2.5 2.5s-1.119 2.5-2.5 2.5z" fill="#a58bc9"/><path d="m164.127 187.061h-32.068c-1.381 0-2.5-1.119-2.5-2.5s1.119-2.5 2.5-2.5h32.068c1.381 0 2.5 1.119 2.5 2.5s-1.119 2.5-2.5 2.5z" fill="#a58bc9"/><g fill="#846f75"><path d="m186.396 212.353v-166.305c0-1.381-1.119-2.5-2.5-2.5h-25.953c-1.381 0-2.5 1.119-2.5 2.5s1.119 2.5 2.5 2.5h23.453v161.305h-126.373v-161.305h23.054c1.381 0 2.5-1.119 2.5-2.5s-1.119-2.5-2.5-2.5h-25.554c-1.381 0-2.5 1.119-2.5 2.5v166.305c0 1.381 1.119 2.5 2.5 2.5h131.373c1.381 0 2.5-1.12 2.5-2.5z"/><path d="m195.048 54.567c-.091-1.378-1.267-2.42-2.658-2.33-1.378.09-2.421 1.28-2.33 2.658l10.758 163.451-126.1 8.3-.387-5.869c-.09-1.379-1.3-2.397-2.658-2.331-1.378.091-2.421 1.281-2.33 2.659l.55 8.364c.043.661.348 1.279.847 1.716.457.401 1.043.62 1.647.62.055 0 .109-.002.164-.006l131.09-8.629c1.378-.09 2.421-1.28 2.33-2.658z"/><path d="m164.127 105.109h-92.29c-1.381 0-2.5 1.119-2.5 2.5s1.119 2.5 2.5 2.5h92.29c1.381 0 2.5-1.119 2.5-2.5s-1.119-2.5-2.5-2.5z"/><path d="m164.127 123.176h-92.29c-1.381 0-2.5 1.119-2.5 2.5s1.119 2.5 2.5 2.5h92.29c1.381 0 2.5-1.119 2.5-2.5s-1.119-2.5-2.5-2.5z"/><path d="m164.127 141.243h-92.29c-1.381 0-2.5 1.119-2.5 2.5s1.119 2.5 2.5 2.5h92.29c1.381 0 2.5-1.119 2.5-2.5s-1.119-2.5-2.5-2.5z"/><path d="m95.247 85.782-3.046 10.784c-.262.93.034 1.928.762 2.563.464.405 1.051.617 1.645.617.337 0 .677-.068.997-.207l14.235-6.192c2.743.674 5.554 1.015 8.37 1.015 19.329 0 35.054-15.725 35.054-35.054s-15.725-35.054-35.054-35.054-35.054 15.725-35.054 35.054c0 10.243 4.386 19.799 12.091 26.474zm22.963-56.528c16.571 0 30.054 13.482 30.054 30.054s-13.482 30.054-30.054 30.054c-2.669 0-5.334-.357-7.92-1.063-.55-.149-1.134-.108-1.654.119l-10.19 4.432 2.056-7.276c.274-.975-.064-2.018-.859-2.644-7.3-5.747-11.486-14.357-11.486-23.622-.001-16.572 13.482-30.054 30.053-30.054z"/></g><g fill="#a58bc9"><path d="m99.832 65.678c-3.912 0-7.095-3.183-7.095-7.095s3.183-7.095 7.095-7.095 7.095 3.183 7.095 7.095-3.183 7.095-7.095 7.095zm0-9.19c-1.155 0-2.095.939-2.095 2.095s.939 2.095 2.095 2.095 2.095-.939 2.095-2.095-.94-2.095-2.095-2.095z"/><path d="m118.21 65.678c-3.912 0-7.095-3.183-7.095-7.095s3.183-7.095 7.095-7.095 7.095 3.183 7.095 7.095-3.183 7.095-7.095 7.095zm0-9.19c-1.155 0-2.095.939-2.095 2.095s.939 2.095 2.095 2.095 2.095-.939 2.095-2.095-.94-2.095-2.095-2.095z"/><path d="m136.588 65.678c-3.912 0-7.095-3.183-7.095-7.095s3.183-7.095 7.095-7.095 7.095 3.183 7.095 7.095-3.183 7.095-7.095 7.095zm0-9.19c-1.155 0-2.095.939-2.095 2.095s.939 2.095 2.095 2.095 2.095-.939 2.095-2.095-.94-2.095-2.095-2.095z"/></g></g></svg>