<svg id="Layer_1" enable-background="new 0 0 256 256" height="512" viewBox="0 0 256 256" width="512" xmlns="http://www.w3.org/2000/svg"><g><g><circle cx="128" cy="131.556" fill="#63bce7" r="98.75"/><g><path d="m39.917 131.556c0-52.749 41.359-95.835 93.417-98.606-1.766-.094-3.544-.144-5.333-.144-54.538 0-98.75 44.212-98.75 98.75s44.212 98.75 98.75 98.75c1.79 0 3.567-.05 5.333-.144-52.058-2.771-93.417-45.857-93.417-98.606z" fill="#6377e7"/></g><g fill="#f8af23"><path d="m68.221 102.521 5.569 4.229c1.527 1.16 1.986 3.256 1.083 4.947l-2.436 4.563c-.619 1.159-.613 2.551.015 3.705l.798 1.465c.778 1.429.588 3.19-.476 4.42l-5.37 6.21c-.614.709-.951 1.616-.951 2.554v15.398c0 2.67-2.621 4.555-5.151 3.699-3.514-1.188-7.546-2.624-7.617-2.98-.101-.503-5.568-15.586-7.795-21.717-.558-1.537-.098-3.256 1.151-4.311l4.332-3.66c.6-.507 1.033-1.182 1.243-1.939l3.336-12.029c.324-1.168 1.172-2.12 2.296-2.575l6.146-2.49c1.277-.515 2.731-.322 3.827.511z"/><path d="m202.219 135.955 7.951 11.636c1.399 2.047 2.03 4.522 1.784 6.988l-.936 9.357c-.415 4.148-3.238 7.661-7.199 8.958l-9.461 3.099c-2.177.713-4.063 2.117-5.37 3.999l-15.449 22.239c-5.101 7.343-16.454 5.389-18.806-3.237l-.024-.088c-.671-2.459-.427-5.078.687-7.371l8.46-17.418c.752-1.549 1.113-3.259 1.051-4.981l-.683-18.907c-.137-3.793 1.778-7.367 5.013-9.353l11.737-7.207c1.336-.82 2.837-1.332 4.396-1.497l7.042-.749c3.853-.407 7.621 1.333 9.807 4.532z"/><path d="m201.453 121.835 8.924-1.971c1.202-.266 2.195-1.107 2.655-2.249l3.54-8.8c.375-.932.358-1.975-.047-2.894l-4.256-9.665c-.93-2.111-3.533-2.88-5.46-1.613l-4.468 2.938c-1.211.797-1.851 2.223-1.64 3.658l.737 5.009c.19 1.292-.31 2.59-1.318 3.42l-5.256 4.328c-2.202 1.813-1.635 5.327 1.025 6.355l3.416 1.321c.684.265 1.431.321 2.148.163z"/><path d="m85.596 170.083 5.621 4.309c.769.59 1.348 1.392 1.665 2.308l4.837 13.992c1.392 4.027-2.621 7.811-6.56 6.185l-19.725-8.143c-2.615-1.08-3.793-4.13-2.582-6.687l2.889-6.099c.399-.842 1.028-1.554 1.814-2.055l6.378-4.059c1.752-1.114 4.015-1.015 5.663.249z"/></g></g><path d="m184.657 70.597c0-32.153-26.783-58.05-59.256-56.599-28.871 1.29-52.397 24.577-53.972 53.434-.605 11.091 1.968 21.5 6.912 30.461l35.37 70.464c5.9 11.754 22.678 11.754 28.578 0l35.358-70.442c4.47-8.103 7.01-17.41 7.01-27.318z" fill="#f46275"/><g><path d="m124.378 168.357-35.37-70.464c-4.943-8.961-7.517-19.37-6.912-30.461 1.523-27.911 23.584-50.609 51.153-53.234-2.572-.236-5.188-.319-7.848-.2-28.871 1.29-52.397 24.578-53.972 53.434-.605 11.091 1.968 21.5 6.912 30.461l35.37 70.464c3.891 7.751 12.51 10.388 19.623 7.917-3.674-1.277-6.947-3.914-8.956-7.917z" fill="#f43075"/></g><circle cx="127.717" cy="70.304" fill="#f8af23" r="37.671"/><g fill="#9e9e9e"><circle cx="128" cy="54.548" r="10.503"/><path d="m142.484 92.563h-28.968v-18.219c0-5.132 4.16-9.293 9.293-9.293h10.383c5.132 0 9.293 4.16 9.293 9.293v18.219z"/></g><g fill="#3f3679"><path d="m67.953 134.615c0-.577.208-1.136.586-1.572l5.37-6.209c1.465-1.694 1.729-4.153.658-6.119l-.797-1.466c-.389-.712-.393-1.565-.01-2.281l2.436-4.563c1.257-2.354.626-5.234-1.499-6.848l-5.568-4.229c-1.512-1.147-3.54-1.417-5.298-.705l-6.145 2.49c-1.545.625-2.734 1.958-3.18 3.564l-3.336 12.029c-.13.468-.395.881-.765 1.194l-4.333 3.66c-1.721 1.455-2.361 3.854-1.593 5.969 4.668 12.859 7.565 20.925 7.733 21.5.197.985.257 1.282 8.608 4.106.575.194 1.163.291 1.746.291 1.106 0 2.192-.346 3.131-1.019 1.433-1.028 2.254-2.629 2.254-4.392v-15.4zm-3 0v15.398c0 .785-.365 1.497-1.003 1.955-.637.457-1.43.574-2.167.324-4.598-1.555-6.249-2.237-6.832-2.512-.466-1.378-2.054-5.857-7.65-21.276-.342-.94-.057-2.006.709-2.653l4.333-3.66c.832-.704 1.427-1.632 1.719-2.684l3.336-12.029c.198-.715.728-1.308 1.415-1.586l6.146-2.49c.782-.319 1.685-.196 2.356.313l5.568 4.23c.945.718 1.226 1.999.667 3.046l-2.436 4.563c-.859 1.609-.852 3.527.021 5.128l.797 1.466c.477.875.359 1.968-.293 2.721l-5.37 6.21c-.848.983-1.316 2.238-1.316 3.536z"/><path d="m212.51 164.085.937-9.357c.281-2.813-.442-5.649-2.038-7.983l-7.951-11.636c-2.502-3.662-6.795-5.644-11.204-5.175l-7.042.75c-1.769.188-3.505.779-5.022 1.71l-11.736 7.207c-3.689 2.265-5.884 6.36-5.727 10.686l.683 18.907c.054 1.47-.258 2.947-.901 4.271l-8.46 17.417c-1.272 2.62-1.552 5.611-.761 8.509 1.243 4.559 4.908 7.889 9.565 8.69.702.121 1.401.18 2.094.18 3.896 0 7.536-1.876 9.825-5.172l15.45-22.24c1.113-1.604 2.748-2.821 4.604-3.429l9.461-3.1c4.522-1.482 7.75-5.499 8.223-10.235zm-18.619 10.484c-2.473.81-4.65 2.432-6.134 4.568l-15.449 22.239c-2.023 2.913-5.456 4.35-8.947 3.747-3.495-.602-6.246-3.101-7.204-6.61-.575-2.11-.366-4.354.59-6.321l8.46-17.418c.856-1.764 1.271-3.732 1.2-5.689l-.683-18.907c-.118-3.247 1.529-6.32 4.299-8.021l11.735-7.207c1.14-.699 2.443-1.143 3.771-1.284l7.042-.75c.321-.034.642-.051.961-.051 2.962 0 5.754 1.455 7.449 3.936l7.951 11.636c1.197 1.752 1.74 3.881 1.53 5.993l-.937 9.357c-.355 3.554-2.778 6.57-6.174 7.682z"/><path d="m195.347 121.75 3.417 1.321c.605.234 1.243.352 1.883.352.378 0 .756-.041 1.13-.124l8.925-1.971c1.687-.373 3.078-1.552 3.722-3.154l3.54-8.8c.522-1.299.499-2.779-.065-4.059l-4.256-9.665c-.622-1.411-1.826-2.471-3.305-2.907-1.478-.437-3.064-.202-4.353.646l-4.469 2.938c-1.691 1.113-2.594 3.126-2.3 5.129l.736 5.01c.113.767-.188 1.55-.787 2.044l-5.256 4.328c-1.45 1.194-2.138 3.014-1.839 4.868.3 1.855 1.525 3.366 3.277 4.044zm.468-6.597 5.257-4.328c1.405-1.158 2.113-2.996 1.849-4.796l-.736-5.009c-.126-.854.259-1.712.979-2.186l4.469-2.938c.368-.242.793-.367 1.223-.367.212 0 .424.03.632.091.63.186 1.144.638 1.408 1.239l4.257 9.666c.24.545.25 1.175.027 1.729l-3.54 8.801c-.274.683-.867 1.185-1.586 1.344l-8.924 1.971c-.43.096-.876.061-1.285-.097l-3.416-1.321c-.747-.289-1.269-.933-1.396-1.724-.128-.79.165-1.565.782-2.075z"/><path d="m94.299 176.211c-.413-1.197-1.163-2.237-2.17-3.009l-5.621-4.309c-2.139-1.642-5.107-1.769-7.38-.323l-6.378 4.059c-1.025.653-1.843 1.578-2.364 2.678l-2.889 6.099c-.764 1.612-.831 3.416-.188 5.08.642 1.664 1.903 2.956 3.553 3.636l19.725 8.144c.812.335 1.654.499 2.486.499 1.602 0 3.164-.607 4.395-1.767 1.869-1.763 2.508-4.366 1.669-6.794zm1.109 18.603c-1.014.956-2.389 1.21-3.678.678l-19.725-8.144c-.881-.364-1.556-1.054-1.898-1.943-.344-.889-.308-1.853.101-2.715l2.889-6.099c.278-.588.716-1.083 1.265-1.432l6.378-4.059c.562-.358 1.205-.536 1.847-.536.742 0 1.483.238 2.098.708l5.62 4.309c.537.413.938.969 1.159 1.609l4.837 13.992c.455 1.318.121 2.676-.893 3.632z"/><path d="m127.717 109.475c21.6 0 39.172-17.572 39.172-39.171s-17.572-39.171-39.172-39.171c-21.599 0-39.171 17.572-39.171 39.171s17.572 39.171 39.171 39.171zm0-75.343c19.945 0 36.172 16.227 36.172 36.171s-16.227 36.171-36.172 36.171c-19.944 0-36.171-16.227-36.171-36.171s16.226-36.171 36.171-36.171z"/><path d="m113.516 94.063h28.969c.828 0 1.5-.671 1.5-1.5v-18.219c0-5.123-3.591-9.415-8.386-10.513 2.687-2.203 4.405-5.545 4.405-9.283 0-6.619-5.385-12.003-12.003-12.003s-12.003 5.385-12.003 12.003c0 3.738 1.718 7.08 4.405 9.283-4.795 1.098-8.386 5.39-8.386 10.513v18.219c-.001.829.671 1.5 1.499 1.5zm5.481-39.515c0-4.964 4.039-9.003 9.003-9.003s9.003 4.039 9.003 9.003-4.039 9.003-9.003 9.003-9.003-4.038-9.003-9.003zm-3.981 19.796c0-4.297 3.496-7.793 7.793-7.793h10.383c4.297 0 7.793 3.496 7.793 7.793v16.719h-25.969z"/><path d="m25.89 240.56h-18.5c-.828 0-1.5.671-1.5 1.5s.672 1.5 1.5 1.5h18.5c.828 0 1.5-.671 1.5-1.5s-.672-1.5-1.5-1.5z"/><path d="m248.61 240.56h-18.5c-.828 0-1.5.671-1.5 1.5s.672 1.5 1.5 1.5h18.5c.828 0 1.5-.671 1.5-1.5s-.672-1.5-1.5-1.5z"/><path d="m215.337 240.56h-174.674c-.828 0-1.5.671-1.5 1.5s.672 1.5 1.5 1.5h174.674c.828 0 1.5-.671 1.5-1.5s-.672-1.5-1.5-1.5z"/><path d="m7.39 231.806h7.943c.828 0 1.5-.671 1.5-1.5s-.672-1.5-1.5-1.5h-7.943c-.828 0-1.5.671-1.5 1.5s.672 1.5 1.5 1.5z"/><path d="m240.667 231.806h7.943c.828 0 1.5-.671 1.5-1.5s-.672-1.5-1.5-1.5h-7.943c-.828 0-1.5.671-1.5 1.5s.672 1.5 1.5 1.5z"/><path d="m25.89 231.806h204.22c.828 0 1.5-.671 1.5-1.5s-.672-1.5-1.5-1.5h-77.746c43.542-10.913 75.886-50.373 75.886-97.25 0-34.894-17.693-66.706-47.34-85.161-3.022-6.599-7.292-12.643-12.721-17.835-11.58-11.074-26.777-16.77-42.855-16.061-22.01.984-41.155 14.683-50.103 33.825-.056.026-.113.048-.166.082-29.627 18.457-47.315 50.289-47.315 85.15 0 46.877 32.344 86.337 75.886 97.25h-77.746c-.828 0-1.5.671-1.5 1.5s.672 1.5 1.5 1.5zm99.579-216.309c.854-.038 1.707-.057 2.557-.057 14.281 0 27.725 5.375 38.091 15.289 10.989 10.509 17.041 24.668 17.041 39.869 0 9.304-2.359 18.5-6.851 26.645l-35.358 70.442c-2.511 5.002-7.352 7.989-12.948 7.989s-10.438-2.987-12.948-7.989l-35.399-70.517c-4.968-9.005-7.294-19.26-6.728-29.655 1.524-27.919 24.603-50.768 52.543-52.016zm-94.719 116.059c0-32.447 15.802-62.18 42.468-80.354-1.84 5.108-2.98 10.53-3.287 16.148-.597 10.958 1.857 21.77 7.069 31.216l35.37 70.464c2.986 5.948 8.975 9.643 15.63 9.643s12.644-3.695 15.63-9.643l35.331-70.391c4.708-8.536 7.196-18.233 7.196-28.042 0-6.703-1.131-13.209-3.277-19.327 26.61 18.178 42.37 47.857 42.37 80.286 0 53.624-43.626 97.25-97.25 97.25s-97.25-43.626-97.25-97.25z"/></g></g></svg>