<?xml version="1.0" encoding="iso-8859-1"?>
<!-- Generator: Adobe Illustrator 19.0.0, SVG Export Plug-In . SVG Version: 6.00 Build 0)  -->
<svg version="1.1" id="Capa_1" xmlns="http://www.w3.org/2000/svg" xmlns:xlink="http://www.w3.org/1999/xlink" x="0px" y="0px"
	 viewBox="0 0 512 512" style="enable-background:new 0 0 512 512;" xml:space="preserve">
<g>
	<g>
		<g>
			<path d="M400,384V0H48v448c0,35.346,28.654,64,64,64h288c35.346,0,64-28.654,64-64v-64H400z M144,448c0,17.673-14.327,32-32,32
				s-32-14.327-32-32V32h288v352H144V448z M432,448c0,17.673-14.327,32-32,32H167.408c5.645-9.719,8.609-20.761,8.592-32v-32h256
				V448z"/>
			<rect x="160" y="64" width="176" height="32"/>
			<rect x="112" y="128" width="224" height="32"/>
			<rect x="112" y="256" width="224" height="32"/>
			<rect x="112" y="192" width="128" height="32"/>
			<rect x="272" y="192" width="32" height="32"/>
			<rect x="272" y="320" width="32" height="32"/>
			<rect x="112" y="320" width="128" height="32"/>
		</g>
	</g>
</g>
<g>
</g>
<g>
</g>
<g>
</g>
<g>
</g>
<g>
</g>
<g>
</g>
<g>
</g>
<g>
</g>
<g>
</g>
<g>
</g>
<g>
</g>
<g>
</g>
<g>
</g>
<g>
</g>
<g>
</g>
</svg>
