<?xml version="1.0" encoding="iso-8859-1"?>
<!-- Generator: Adobe Illustrator 19.0.0, SVG Export Plug-In . SVG Version: 6.00 Build 0)  -->
<svg version="1.1" id="Capa_1" xmlns="http://www.w3.org/2000/svg" xmlns:xlink="http://www.w3.org/1999/xlink" x="0px" y="0px"
	 viewBox="0 0 512 512" style="enable-background:new 0 0 512 512;" xml:space="preserve">
<circle style="fill:#2896FF;" cx="256" cy="256" r="256"/>
<path style="fill:#1E73BE;" d="M511.013,233.596L399.607,122.19h-262.38c0,2.449,0,15.981,0,35.498l-9.584-9.584h-15.25v214.298
	c0,7.016,2.844,13.368,7.442,17.966l131.573,131.573c1.529,0.027,3.057,0.058,4.592,0.058c141.385,0,256-114.615,256-256
	C512,248.449,511.654,240.981,511.013,233.596z"/>
<path style="fill:#FFFFFF;" d="M137.227,122.19c0,10.729,0,233.759,0,244.025h-9.584V148.104h-15.25v214.298
	c0,14.032,11.375,25.408,25.408,25.408H374.2c14.032,0,25.408-11.375,25.408-25.408V194.534v-46.429V122.19H137.227z"/>
<g>
	<rect x="162.06" y="148.1" style="fill:#1E73BE;" width="211.84" height="45.13"/>
	<rect x="162.06" y="277.13" style="fill:#1E73BE;" width="211.84" height="25.311"/>
	<rect x="162.06" y="310.07" style="fill:#1E73BE;" width="211.84" height="25.311"/>
	<rect x="162.06" y="205.87" style="fill:#1E73BE;" width="96.11" height="62.4"/>
	<rect x="277.79" y="205.87" style="fill:#1E73BE;" width="96.11" height="27.31"/>
	<rect x="277.79" y="241.34" style="fill:#1E73BE;" width="96.11" height="27.31"/>
</g>
<g>
</g>
<g>
</g>
<g>
</g>
<g>
</g>
<g>
</g>
<g>
</g>
<g>
</g>
<g>
</g>
<g>
</g>
<g>
</g>
<g>
</g>
<g>
</g>
<g>
</g>
<g>
</g>
<g>
</g>
</svg>
