<svg id="magnify" enable-background="new 0 0 300 300" height="512" viewBox="0 0 300 300" width="512" xmlns="http://www.w3.org/2000/svg" xmlns:xlink="http://www.w3.org/1999/xlink"><linearGradient id="SVGID_1_" gradientUnits="userSpaceOnUse" x1="95.745" x2="259.283" y1="225.846" y2="62.308"><stop offset="0" stop-color="#107eff"/><stop offset="1" stop-color="#8f16ff"/></linearGradient><g><path d="m203.482 36.74c0-2.362 1.915-4.277 4.276-4.277s4.276 1.915 4.276 4.277-1.915 4.276-4.276 4.276-4.276-1.915-4.276-4.276zm33.317 72.052c0 2.209 1.791 4 4 4s4-1.791 4-4-1.791-4-4-4-4 1.791-4 4zm-.485-35.516c.781.781 1.805 1.172 2.828 1.172s2.047-.391 2.828-1.172l2.828-2.828 2.828 2.828c.781.781 1.805 1.172 2.828 1.172s2.047-.391 2.828-1.172c1.562-1.562 1.562-4.094 0-5.656l-2.828-2.828 2.828-2.828c1.562-1.562 1.562-4.094 0-5.656s-4.094-1.562-5.656 0l-2.828 2.828-2.828-2.828c-1.562-1.562-4.094-1.562-5.656 0s-1.562 4.094 0 5.656l2.828 2.828-2.828 2.828c-1.562 1.563-1.562 4.094 0 5.656zm26.307 189.34c-3.426 3.426-7.98 5.316-12.828 5.316-4.846 0-9.402-1.891-12.828-5.316l-38.082-38.086c-1.562-1.562-1.562-4.094 0-5.656l1.171-1.171-20.469-20.471c-16.37 12.435-35.939 18.747-55.555 18.747-23.559 0-47.117-8.969-65.053-26.902-35.871-35.871-35.871-94.238 0-130.109 35.871-35.867 94.234-35.867 130.105 0 32.869 32.869 35.526 84.578 8.158 120.609l20.47 20.47 1.173-1.173c.75-.75 1.768-1.172 2.828-1.172s2.078.422 2.828 1.172l38.082 38.086c7.074 7.074 7.074 18.582 0 25.656zm-79.195-79.195c32.752-32.754 32.752-86.043 0-118.797-16.375-16.375-37.887-24.562-59.396-24.562s-43.021 8.188-59.396 24.562c-32.752 32.754-32.752 86.043 0 118.797 32.747 32.742 86.04 32.742 118.792 0zm73.539 59.195-35.254-35.258-14.344 14.344 5.432 5.433 5.171-5.171c1.562-1.562 4.094-1.562 5.656 0s1.562 4.094 0 5.656l-5.172 5.172 2.344 2.344 5.172-5.172c1.562-1.562 4.094-1.562 5.656 0s1.562 4.094 0 5.656l-5.172 5.172 2.344 2.344 5.172-5.172c1.562-1.562 4.094-1.562 5.656 0s1.562 4.094 0 5.656l-5.172 5.172 2.344 2.344 5.173-5.173c1.562-1.562 4.094-1.562 5.656 0s1.562 4.094 0 5.656l-5.173 5.173.167.167c3.832 3.828 10.512 3.828 14.344 0 3.955-3.952 3.955-10.39 0-14.343zm-79.195-172.332c-14.355-14.355-33.441-22.262-53.74-22.262-20.301 0-39.387 7.906-53.74 22.262-14.068 14.066-21.971 32.766-22.252 52.66-.031 2.207 1.734 4.023 3.943 4.055 2.268-.062 4.025-1.734 4.057-3.945.252-17.797 7.322-34.527 19.908-47.113 12.844-12.844 29.92-19.918 48.084-19.918 18.162 0 35.24 7.074 48.084 19.918 26.512 26.512 26.512 69.652 0 96.164-12.844 12.844-29.922 19.918-48.084 19.918-18.164 0-35.24-7.074-48.084-19.918-7.797-7.793-13.428-17.039-16.736-27.477-.666-2.109-2.914-3.277-5.021-2.605-2.105.668-3.271 2.914-2.604 5.02 3.646 11.512 10.115 22.133 18.705 30.719 14.354 14.355 33.439 22.262 53.74 22.262 20.299 0 39.385-7.906 53.74-22.262 29.632-29.634 29.632-77.845 0-107.478zm-36.971 18.508v20h20c2.209 0 4 1.789 4 4v24c0 2.211-1.791 4-4 4h-20v20c0 2.211-1.791 4-4 4h-24c-2.209 0-4-1.789-4-4v-20h-20c-2.209 0-4-1.789-4-4v-24c0-2.211 1.791-4 4-4h20v-20c0-2.211 1.791-4 4-4h24c2.209 0 4 1.789 4 4zm-4 28c-2.209 0-4-1.789-4-4v-20h-16v20c0 2.211-1.791 4-4 4h-20v16h20c2.209 0 4 1.789 4 4v20h16v-20c0-2.211 1.791-4 4-4h20v-16z" fill="url(#SVGID_1_)"/></g></svg>