<svg height="512" viewBox="0 0 128 128" width="512" xmlns="http://www.w3.org/2000/svg"><path d="m119.479 61a5.009 5.009 0 0 0 -4.9 4h-7.272a41.175 41.175 0 0 0 -11.414-27.48l5.166-5.165a5 5 0 1 0 -1.414-1.413l-5.166 5.165a41.177 41.177 0 0 0 -27.479-11.394v-7.293a5 5 0 1 0 -2 0v7.293a41.172 41.172 0 0 0 -27.478 11.394l-5.166-5.165a4.994 4.994 0 1 0 -1.415 1.414l5.166 5.164a41.175 41.175 0 0 0 -11.415 27.48h-7.272a5 5 0 1 0 0 2h7.271a41.18 41.18 0 0 0 11.4 27.5l-5.144 5.144a5 5 0 1 0 1.414 1.415l5.139-5.145a41.173 41.173 0 0 0 27.5 11.414v7.252a5 5 0 1 0 2 0v-7.252a41.173 41.173 0 0 0 27.5-11.414l5.144 5.144a5 5 0 1 0 1.414-1.413l-5.144-5.145a41.175 41.175 0 0 0 11.395-27.5h7.271a5 5 0 1 0 4.9-6z" fill="#e6e7e8"/><circle cx="62" cy="62.021" fill="#ffd7e5" r="40.333" transform="matrix(.16 -.987 .987 .16 -9.151 113.286)"/><path d="m62 24.687a40.326 40.326 0 0 1 40.3 38.834c.019-.5.038-1 .038-1.5a40.333 40.333 0 1 0 -80.666 0c0 .5.019 1 .038 1.5a40.327 40.327 0 0 1 40.29-38.834z" fill="#fff"/><path d="m27.013 21.356a4 4 0 1 0 0 5.657 4 4 0 0 0 0-5.657z" fill="#0089ef"/><path d="m102.644 96.987a4 4 0 1 0 0 5.657 4 4 0 0 0 0-5.657z" fill="#0089ef"/><path d="m70.117 43.601-16.884 7.518v18.984l16.884 7.518z" fill="#6dc9f7"/><path d="m82.041 60.539a5.23 5.23 0 0 1 -5.227 5.233 5.117 5.117 0 0 1 -.57-.032v-10.4a5.118 5.118 0 0 1 .57-.031 5.225 5.225 0 0 1 5.227 5.23z" fill="#fa759e"/><path d="m53.233 51.119h-9.741a9.492 9.492 0 0 0 -9.492 9.492 9.492 9.492 0 0 0 9.492 9.489h9.741z" fill="#6dc9f7"/><rect fill="#d4fbff" height="42.468" rx="3.061" width="6.124" x="70.12" y="39.379"/><g fill="#0089ef"><path d="m44.987 70.1v11.955a2.609 2.609 0 0 0 5.217 0v-11.955z"/><path d="m102.644 21.356a4 4 0 1 0 0 5.657 4 4 0 0 0 0-5.657z"/><path d="m27.013 96.987a4 4 0 1 0 0 5.657 4 4 0 0 0 0-5.657z"/><circle cx="8.521" cy="62" r="4"/><circle cx="115.479" cy="62" r="4"/><circle cx="62" cy="8.521" r="4"/><circle cx="62" cy="115.479" r="4"/></g><path d="m100.981 72.464a1 1 0 0 0 -1.241.676 39.15 39.15 0 0 1 -3.988 9.089 1 1 0 0 0 1.715 1.03 41.154 41.154 0 0 0 4.192-9.554 1 1 0 0 0 -.678-1.241z" fill="#3a2c60"/><path d="m90 59.613h-4.183a1 1 0 0 0 0 2h4.183a1 1 0 0 0 0-2z" fill="#3a2c60"/><path d="m86.381 66.443a1 1 0 1 0 -1.127 1.657l4.182 2.853a1 1 0 1 0 1.127-1.653z" fill="#3a2c60"/><path d="m85.818 54.957a1 1 0 0 0 .563-.174l4.182-2.854a1 1 0 1 0 -1.127-1.652l-4.182 2.854a1 1 0 0 0 .564 1.826z" fill="#3a2c60"/><path d="m47.6 85.663a3.613 3.613 0 0 0 3.6-3.609v-10.954h1.817l16.1 7.169v.514a4.061 4.061 0 1 0 8.122 0v-12.033a6.223 6.223 0 0 0 0-12.416v-11.894a4.063 4.063 0 0 0 -8.126 0v.512l-16.1 7.167h-9.521a10.492 10.492 0 0 0 0 20.984h.5v10.951a3.613 3.613 0 0 0 3.608 3.609zm1.6-3.609a1.609 1.609 0 1 1 -3.217 0v-10.954h3.217zm31.841-21.514a4.238 4.238 0 0 1 -3.8 4.21v-8.416a4.235 4.235 0 0 1 3.8 4.206zm-7.858-20.161a2.063 2.063 0 0 1 2.061 2.061v36.346a2.061 2.061 0 1 1 -4.122 0v-36.346a2.063 2.063 0 0 1 2.061-2.061zm-4.061 35.7-14.89-6.629v-17.682l14.886-6.627zm-34.122-15.468a8.5 8.5 0 0 1 8.492-8.492h8.74v16.981h-8.74a8.5 8.5 0 0 1 -8.492-8.489z" fill="#3a2c60"/><path d="m115.479 57a5.008 5.008 0 0 0 -4.9 4h-7.272a41.179 41.179 0 0 0 -11.413-27.479l5.165-5.166a5 5 0 1 0 -1.414-1.414l-5.166 5.166a41.17 41.17 0 0 0 -27.479-11.394v-7.293a5 5 0 0 0 -1-9.9 5 5 0 0 0 -1 9.9v7.293a41.165 41.165 0 0 0 -27.479 11.394l-5.165-5.166a5 5 0 1 0 -1.415 1.414l5.165 5.165a41.181 41.181 0 0 0 -11.414 27.48h-7.272a5 5 0 1 0 0 2h7.265a41.676 41.676 0 0 0 .436 5.171 41.01 41.01 0 0 0 10.992 22.3l-5.172 5.172a5 5 0 1 0 1.415 1.414l5.172-5.172a41.385 41.385 0 0 0 27.472 11.446v7.249a5 5 0 1 0 2 0v-7.246a40.893 40.893 0 0 0 24.437-8.734c1.072-.838 2.087-1.744 3.071-2.682l5.137 5.137a5.007 5.007 0 1 0 1.414-1.413l-5.135-5.136a41.6 41.6 0 0 0 2.959-3.442 1 1 0 0 0 -1.59-1.213 39.583 39.583 0 0 1 -7.088 7.173 38.944 38.944 0 0 1 -24.205 8.33 39.291 39.291 0 1 1 38.8-32.823 1 1 0 0 0 1.973.328 41.583 41.583 0 0 0 .54-5.859h7.267a5 5 0 1 0 4.9-6zm-106.958 8a3 3 0 1 1 3-3 3 3 0 0 1 -3 3zm91.294 31.815a3 3 0 1 1 -2.121.879 2.984 2.984 0 0 1 2.121-.879zm-73.509 5.122a3 3 0 1 1 0-4.243 3 3 0 0 1 0 4.243zm38.694 13.542a3 3 0 1 1 -3-3 3 3 0 0 1 3 3zm32.694-93.416a3 3 0 0 1 4.243 4.242 3.073 3.073 0 0 1 -4.243 0 3 3 0 0 1 0-4.242zm-38.694-13.542a3 3 0 0 1 3-3 3 3 0 1 1 -3 3zm-36.937 17.784a3 3 0 1 1 4.243 0 3.073 3.073 0 0 1 -4.243 0zm93.416 38.695a3 3 0 1 1 3-3 3 3 0 0 1 -3 3z" fill="#3a2c60"/></svg>