<svg id="Layer_1" enable-background="new 0 0 128 128" height="512" viewBox="0 0 128 128" width="512" xmlns="http://www.w3.org/2000/svg"><path d="m95.407 76.43c-.048-.061-.096-.116-.155-.163-3.688-3.877-8.345-6.823-13.585-8.433 4.183-3.432 7.218-8.208 8.453-13.659.333.104.672.169 1.013.169 2.544 0 4.537-2.633 4.537-5.994 0-1.697-.509-3.207-1.339-4.287v-10.856c0-13.221-10.718-23.939-23.939-23.939h-8.784c-.541 0-1.07.046-1.602.081 0-.041.008-.079.008-.12-.028-2.024-1.33-3.648-2.91-3.627-1.188.016-2.194.959-2.608 2.287-1.154-.784-2.533-.896-3.474-.165-1.13.879-1.228 2.668-.313 4.186-7.736 3.967-13.041 12.005-13.041 21.297v10.856c-.83 1.081-1.339 2.59-1.339 4.287 0 3.361 1.993 5.994 4.537 5.994.341 0 .68-.065 1.013-.169 1.235 5.452 4.271 10.227 8.453 13.659-5.244 1.611-9.905 4.56-13.594 8.442-.048.04-.088.086-.128.135-5.298 5.64-8.553 13.22-8.553 21.55v25.437c0 1.654 1.346 3 3 3h7.39 55.104 7.39c1.654 0 3-1.346 3-3v-25.436c0-8.321-3.247-15.893-8.534-21.532z" fill="#e6e7e8"/><path d="m36.868 39.356c.496 0 .968.147 1.396.407v4.944c0 1.354.119 2.679.337 3.971-.514.412-1.1.666-1.733.666-1.954 0-3.537-2.236-3.537-4.994s1.583-4.994 3.537-4.994z" fill="#fff"/><path d="m85.736 44.708v-4.944c.429-.26.9-.407 1.396-.407 1.954 0 3.537 2.236 3.537 4.994s-1.584 4.994-3.537 4.994c-.633 0-1.219-.254-1.733-.666.218-1.292.337-2.617.337-3.971z" fill="#fff"/><path d="m75.441 64.269c-3.822 2.631-8.45 4.175-13.441 4.175-4.991 0-9.619-1.544-13.441-4.175-13.47 3.169-23.501 15.256-23.501 29.693v25.436c0 1.104.895 2 2 2h69.883c1.105 0 2-.896 2-2v-25.436c.001-14.437-10.03-26.524-23.5-29.693z" fill="#ffd7e5"/><path d="m62 68.444c-4.94 0-9.526-1.51-13.325-4.092-.294.077-.593.142-.884.228 1.566 7.203 7.324 12.556 14.209 12.556s12.643-5.353 14.208-12.556c-.291-.086-.589-.151-.884-.228-3.798 2.582-8.384 4.092-13.324 4.092z" fill="#fa759e"/><path d="m62 68.444c-2.853 0-5.588-.504-8.122-1.427 1.595 2.841 4.632 4.763 8.122 4.763s6.527-1.922 8.122-4.763c-2.534.922-5.269 1.427-8.122 1.427z" fill="#fff"/><path d="m67.399 30.218c-9.657-2.925-14.713-8.564-14.713-8.564s-2.135 4.142-5.905 6.376c-3.676 2.179-8.269 2.895-8.495 2.929-.01.283-.021.566-.021.852v7.952 4.944c0 13.109 10.627 23.736 23.736 23.736 13.109 0 23.736-10.627 23.736-23.736v-12.441c-.002 0-9.872.516-18.338-2.048z" fill="#fff"/><path d="m34.448 81.871h55.104v39.527h-55.104z" fill="#6dc9f7"/><path d="m34.448 81.871h3v39.527h-3z" fill="#fff"/><path d="m68.804 88.241h13.998v7.722h-13.998z" fill="#d4fbff"/><circle cx="86.5" cy="113.008" fill="#fff" r="8.39"/><circle cx="37.5" cy="113.008" fill="#fff" r="8.39"/><g fill="#3a2c60"><path d="m91.402 72.424c-.046-.057-.091-.109-.147-.153-3.689-3.879-8.35-6.824-13.592-8.434 4.184-3.432 7.221-8.208 8.456-13.661.333.103.672.168 1.013.168 2.544 0 4.537-2.633 4.537-5.993 0-1.697-.509-3.206-1.339-4.287v-10.857c0-13.221-10.718-23.939-23.939-23.939h-8.783c-.541 0-1.07.045-1.602.081 0-.041.008-.079.008-.12-.027-2.024-1.33-3.648-2.91-3.627-1.188.016-2.194.959-2.608 2.287-1.155-.784-2.534-.896-3.474-.165-1.13.879-1.227 2.668-.313 4.186-7.736 3.967-13.041 12.005-13.041 21.296v10.857c-.83 1.081-1.339 2.59-1.339 4.287 0 3.36 1.993 5.993 4.538 5.993.341 0 .679-.065 1.012-.168 1.236 5.453 4.272 10.229 8.456 13.661-5.246 1.611-9.91 4.56-13.6 8.443-.045.038-.082.081-.121.126-5.301 5.64-8.557 13.223-8.557 21.556v25.437c0 1.654 1.346 3 3 3h7.39 55.104 7.39c1.654 0 3-1.346 3-3v-25.436c0-8.324-3.248-15.9-8.539-21.538zm-4.902 47.974c-4.074 0-7.39-3.315-7.39-7.39s3.315-7.39 7.39-7.39 7.39 3.315 7.39 7.39-3.316 7.39-7.39 7.39zm2.052-16.546c-.661-.148-1.346-.233-2.052-.233-5.178 0-9.39 4.212-9.39 9.39 0 3 1.419 5.669 3.616 7.39h-17.726v-11.737c0-.553-.447-1-1-1s-1 .447-1 1v11.737h-17.727c2.197-1.72 3.616-4.389 3.616-7.39 0-5.178-4.212-9.39-9.39-9.39-.705 0-1.39.085-2.052.233v-20.981h25.553v10.29c0 .553.447 1 1 1s1-.447 1-1v-10.29h25.552zm-51.052 1.767c4.074 0 7.39 3.315 7.39 7.39s-3.315 7.39-7.39 7.39-7.39-3.315-7.39-7.39 3.316-7.39 7.39-7.39zm5.01-24.748c-1.469-3.427-4.055-6.309-7.437-8.111 3.336-3.225 7.425-5.674 11.978-7.05 1.98 7.359 8.002 12.426 14.949 12.426s12.969-5.067 14.949-12.426c4.554 1.376 8.644 3.825 11.98 7.051-3.38 1.803-5.965 4.684-7.434 8.11zm10.676-13.056c1.812 2.974 5.084 4.965 8.814 4.965s7.002-1.991 8.814-4.965c1.403-.537 2.747-1.193 4.015-1.965-1.915 6.123-7.004 10.286-12.829 10.286s-10.914-4.163-12.828-10.286c1.267.772 2.611 1.428 4.014 1.965zm3.527 1.054c1.705.373 3.472.575 5.287.575s3.583-.202 5.287-.575c-1.437 1.191-3.278 1.91-5.287 1.91s-3.85-.719-5.287-1.91zm29.774-20.678c.002-.016.003-.032.005-.049.071-.506.124-1.018.164-1.533.008-.097.016-.194.022-.292.034-.533.058-1.068.058-1.61v-4.299c1.496-.395 2.934 1.567 2.934 3.941 0 2.503-1.579 4.598-3.183 3.842zm-48.973 0c-1.619.758-3.184-1.342-3.184-3.841 0-2.165 1.162-3.994 2.538-3.994.132 0 .265.018.396.053v4.299c0 .543.024 1.081.059 1.616.006.09.013.179.021.269.041.537.096 1.07.171 1.597-.001 0-.001.001-.001.001zm2.069.294c-.101-.604-.176-1.209-.229-1.811-.005-.062-.01-.125-.014-.187-.048-.598-.076-1.192-.076-1.779v-4.944-7.947c0-.35.011-.698.027-1.045 1.6-.332 4.791-1.142 7.491-2.741 3.77-2.234 5.905-6.376 5.905-6.376s5.056 5.639 14.713 8.564c6.852 2.075 14.623 2.133 17.337 2.079v7.467 4.944c0 .586-.029 1.179-.076 1.774-.005.067-.01.135-.015.202-.053.6-.128 1.203-.229 1.803-1.807 10.742-11.168 18.955-22.417 18.955-11.25 0-20.612-8.214-22.417-18.958zm-13.524 70.913v-25.436c0-7.562 2.861-14.468 7.555-19.695 2.958 1.43 5.284 3.769 6.704 6.604h-5.869c-.553 0-1 .447-1 1v22.68c-3.152 1.516-5.338 4.732-5.338 8.458 0 3 1.419 5.669 3.616 7.39h-4.668c-.552-.001-1-.449-1-1.001zm71.882 0c0 .552-.448 1-1 1h-4.668c2.197-1.72 3.616-4.389 3.616-7.39 0-3.726-2.186-6.941-5.338-8.458v-22.68c0-.553-.447-1-1-1h-5.865c1.419-2.834 3.744-5.172 6.7-6.603 4.694 5.227 7.554 12.132 7.554 19.694v25.437z"/><path d="m72.472 39.012c-1.311 0-2.374 1.063-2.374 2.374s1.063 2.374 2.374 2.374 2.374-1.063 2.374-2.374c-.001-1.312-1.063-2.374-2.374-2.374z"/><path d="m51.528 39.012c-1.311 0-2.374 1.063-2.374 2.374s1.063 2.374 2.374 2.374 2.374-1.063 2.374-2.374c0-1.312-1.063-2.374-2.374-2.374z"/><path d="m62 52.95c2.04 0 3.699-1.659 3.699-3.699v-1.582c0-.553-.447-1-1-1s-1 .447-1 1v1.582c0 .937-.763 1.699-1.699 1.699s-1.699-.763-1.699-1.699v-1.582c0-.553-.447-1-1-1s-1 .447-1 1v1.582c0 2.04 1.659 3.699 3.699 3.699z"/><path d="m52.982 32.139-4.648.811c-.544.095-.908.613-.813 1.157.085.486.507.828.984.828.057 0 .114-.005.173-.015l4.648-.811c.544-.095.908-.613.813-1.157s-.604-.905-1.157-.813z"/><path d="m70.674 34.109 4.648.811c.059.01.116.015.173.015.478 0 .899-.342.984-.828.095-.544-.27-1.062-.813-1.157l-4.648-.811c-.554-.091-1.062.27-1.157.813s.269 1.063.813 1.157z"/><path d="m68.07 56.309c.323-.447.223-1.072-.226-1.396s-1.072-.224-1.396.226c-.015.02-1.489 2.015-4.449 2.015-2.852 0-4.4-1.955-4.462-2.033-.332-.44-.959-.528-1.4-.193-.44.333-.527.96-.193 1.4.087.115 2.185 2.826 6.056 2.826 3.972-.001 5.986-2.729 6.07-2.845z"/><path d="m62 96.218c-.553 0-1 .447-1 1v7.776c0 .553.447 1 1 1s1-.447 1-1v-7.776c0-.553-.447-1-1-1z"/></g></svg>