<svg height="512" viewBox="0 0 128 128" width="512" xmlns="http://www.w3.org/2000/svg"><path d="m119.355 47.957h-8.372c-.014 0-.027.008-.041.008a1 1 0 0 0 -.3.062c-.02.007-.04.011-.06.02a.267.267 0 0 0 -.026.009l-13.738 6.594v-11.519a7.32 7.32 0 0 0 -7.311-7.312h-7.182a14.756 14.756 0 1 0 -14.767 0h-18.571a14.757 14.757 0 1 0 -14.767 0h-4.92a7.32 7.32 0 0 0 -7.312 7.312v9.3h-4.5v-1.242a3.43 3.43 0 0 0 -3.426-3.426h-.64a3.43 3.43 0 0 0 -3.422 3.426v25.287a3.43 3.43 0 0 0 3.426 3.424h.64a3.43 3.43 0 0 0 3.426-3.426v-1.236h4.5v8.162a7.319 7.319 0 0 0 7.308 7.312h9.149v3.731a4 4 0 0 0 4 4h2.275l-9.422 19.826a3.8 3.8 0 0 0 6.856 3.258l10.97-23.084h2.179v21.157a4.095 4.095 0 0 0 8.189 0v-21.157h2.178l10.971 23.084a3.812 3.812 0 0 0 3.428 2.166 3.8 3.8 0 0 0 3.428-5.424l-9.418-19.826h2.274a4 4 0 0 0 4-4v-3.731h9.15a7.319 7.319 0 0 0 7.311-7.312v-11.519l13.566 6.519a.975.975 0 0 0 .6.22h8.372a2.648 2.648 0 0 0 2.644-2.648v-25.372a2.648 2.648 0 0 0 -2.645-2.643zm-77.755-31.414a6.52 6.52 0 1 1 -6.52 6.52 6.527 6.527 0 0 1 6.52-6.52zm33.338 13.04a6.52 6.52 0 1 1 6.521-6.52 6.527 6.527 0 0 1 -6.518 6.52z" fill="#e6e7e8"/><rect fill="#fa759e" height="52.893" rx="6.312" width="72.826" x="18.992" y="32.819"/><path d="m12.492 49.427h6.501v20.81h-6.501z" fill="#6dc9f7"/><path d="m85.507 32.819h-60.207a6.312 6.312 0 0 0 -6.312 6.312v3a6.312 6.312 0 0 1 6.312-6.312h60.2a6.312 6.312 0 0 1 6.312 6.312v-3a6.312 6.312 0 0 0 -6.305-6.312z" fill="#fff"/><path d="m91.819 52.239 15.164-7.282v28.618l-15.164-7.283z" fill="#6dc9f7"/><path d="m37.6 5.307a13.756 13.756 0 1 0 13.76 13.756 13.756 13.756 0 0 0 -13.76-13.756zm0 21.276a7.52 7.52 0 1 1 7.521-7.52 7.52 7.52 0 0 1 -7.521 7.52z" fill="#0089ef"/><path d="m70.942 5.307a13.756 13.756 0 1 0 13.758 13.756 13.756 13.756 0 0 0 -13.758-13.756zm0 21.276a7.52 7.52 0 1 1 7.52-7.52 7.52 7.52 0 0 1 -7.52 7.52z" fill="#0089ef"/><path d="m106.983 44.957h8.372a1.645 1.645 0 0 1 1.645 1.643v25.37a1.645 1.645 0 0 1 -1.645 1.645h-8.372a0 0 0 0 1 0 0v-28.658a0 0 0 0 1 0 0z" fill="#0089ef"/><rect fill="#0089ef" height="30.138" rx="2.426" width="5.492" x="7" y="44.763"/><path d="m52.311 93.443v22.157a3.095 3.095 0 0 0 6.189 0v-22.157z" fill="#6dc9f7"/><path d="m42.311 93.443-10.102 21.257a2.8 2.8 0 0 0 5.049 2.4l11.242-23.657z" fill="#6dc9f7"/><path d="m78.6 114.7-10.1-21.257h-6.189l11.241 23.657a2.8 2.8 0 0 0 5.05-2.4z" fill="#6dc9f7"/><path d="m35.453 85.712v4.731a3 3 0 0 0 3 3h33.905a3 3 0 0 0 3-3v-4.731z" fill="#0089ef"/><path d="m44.575 73.269v-25.193a2.114 2.114 0 0 1 3.263-1.776l19.434 12.6a2.114 2.114 0 0 1 0 3.547l-19.434 12.6a2.114 2.114 0 0 1 -3.263-1.778z" fill="#ffd7e5"/><g fill="#3a2c60"><path d="m37.6 10.543a8.52 8.52 0 1 0 8.52 8.52 8.53 8.53 0 0 0 -8.52-8.52zm0 15.04a6.52 6.52 0 1 1 6.52-6.52 6.528 6.528 0 0 1 -6.52 6.52z"/><path d="m70.941 10.543a8.52 8.52 0 1 0 8.521 8.52 8.529 8.529 0 0 0 -8.521-8.52zm0 15.04a6.52 6.52 0 1 1 6.521-6.52 6.527 6.527 0 0 1 -6.521 6.52z"/><path d="m115.356 43.957h-8.373c-.014 0-.026.007-.041.008a.975.975 0 0 0 -.3.062c-.02.007-.04.011-.059.019s-.019.005-.027.009l-13.738 6.595v-11.52a7.32 7.32 0 0 0 -7.311-7.311h-7.19a14.756 14.756 0 1 0 -14.751 0h-18.587a14.756 14.756 0 1 0 -14.751 0h-4.928a7.32 7.32 0 0 0 -7.312 7.311v9.3h-4.5v-1.241a3.429 3.429 0 0 0 -3.425-3.426h-.64a3.43 3.43 0 0 0 -3.423 3.426v25.287a3.43 3.43 0 0 0 3.426 3.424h.64a3.429 3.429 0 0 0 3.425-3.426v-1.236h4.5v8.162a7.319 7.319 0 0 0 7.309 7.312h9.149v3.731a4 4 0 0 0 4 4h2.275l-9.418 19.827a3.795 3.795 0 0 0 3.427 5.423 3.817 3.817 0 0 0 3.429-2.166l10.97-23.084h2.179v21.157a4.095 4.095 0 0 0 8.189 0v-21.157h2.179l10.97 23.084a3.812 3.812 0 0 0 3.428 2.166 3.8 3.8 0 0 0 3.428-5.424l-9.422-19.826h2.274a4 4 0 0 0 4-4v-3.731h9.15a7.319 7.319 0 0 0 7.311-7.312v-11.519l13.566 6.519a.975.975 0 0 0 .6.22h8.373a2.647 2.647 0 0 0 2.643-2.648v-25.372a2.647 2.647 0 0 0 -2.644-2.643zm-57.17-24.894a12.756 12.756 0 1 1 12.755 12.756 12.77 12.77 0 0 1 -12.755-12.756zm-33.338 0a12.756 12.756 0 1 1 12.752 12.756 12.77 12.77 0 0 1 -12.752-12.756zm-13.357 53.413a1.427 1.427 0 0 1 -1.425 1.424h-.64a1.428 1.428 0 0 1 -1.426-1.424v-25.287a1.428 1.428 0 0 1 1.426-1.426h.64a1.427 1.427 0 0 1 1.425 1.426zm2-3.238v-18.811h4.5v18.811zm22.865 47.43a1.8 1.8 0 0 1 -1.623 1.025 1.8 1.8 0 0 1 -1.621-2.565l9.83-20.685h3.976zm21.144-1.068a2.095 2.095 0 0 1 -4.189 0v-21.157h4.189zm20.2-.471a1.794 1.794 0 0 1 -1.621 2.565 1.8 1.8 0 0 1 -1.621-1.024l-10.565-22.227h3.975zm13.118-35.729a5.316 5.316 0 0 1 -5.311 5.311h-24.3a1 1 0 0 0 0 2h13.15v3.731a2 2 0 0 1 -2 2h-33.9a2 2 0 0 1 -2-2v-3.73h5.63a1 1 0 0 0 0-2h-16.787a5.317 5.317 0 0 1 -5.308-5.312v-40.27a5.318 5.318 0 0 1 5.308-5.311h60.2a5.317 5.317 0 0 1 5.311 5.311zm2-26.533 13.165-6.322v25.44l-13.165-6.322zm23.182 19.105a.645.645 0 0 1 -.644.644h-7.373v-26.659h7.373a.645.645 0 0 1 .644.643z"/><path d="m67.816 58.06-19.434-12.6a3.114 3.114 0 0 0 -4.807 2.613v25.197a3.113 3.113 0 0 0 4.807 2.612l19.434-12.6a3.113 3.113 0 0 0 0-5.225zm-1.087 3.547-19.435 12.593a1.113 1.113 0 0 1 -1.719-.934v-25.19a1.11 1.11 0 0 1 1.719-.934l19.435 12.6a1.115 1.115 0 0 1 0 1.869z"/><path d="m56.405 84.712h-9.822a1 1 0 0 0 0 2h9.822a1 1 0 1 0 0-2z"/></g></svg>