<svg height="512" viewBox="0 0 256 256" width="512" xmlns="http://www.w3.org/2000/svg"><path d="m222.6 105.873-25.387-6.541 13.327-22.579a11.876 11.876 0 0 0 -1.84-14.423l-15.031-15.03a11.876 11.876 0 0 0 -14.424-1.835l-22.577 13.324-6.542-25.389a11.876 11.876 0 0 0 -11.5-8.9h-21.256a11.875 11.875 0 0 0 -11.5 8.9l-6.538 25.389-22.58-13.329a11.877 11.877 0 0 0 -14.421 1.84l-15.031 15.03a11.876 11.876 0 0 0 -1.835 14.424l13.324 22.577-25.389 6.542a11.877 11.877 0 0 0 -8.9 11.5v21.259a11.877 11.877 0 0 0 8.9 11.5l25.387 6.542-13.326 22.573a11.877 11.877 0 0 0 1.839 14.422l15.031 15.031a11.876 11.876 0 0 0 14.422 1.836c13.084-7.71 19.456-11.471 22.574-13.316.9 3.507 2.746 10.671 6.547 25.379a11.876 11.876 0 0 0 11.5 8.9h21.259a11.877 11.877 0 0 0 11.5-8.9l6.541-25.388 22.58 13.329a11.878 11.878 0 0 0 14.421-1.837l15.025-15.034a11.878 11.878 0 0 0 1.835-14.425l-13.326-22.576 25.39-6.543a11.875 11.875 0 0 0 8.9-11.5v-21.255a11.877 11.877 0 0 0 -8.899-11.497zm3.9 32.756a6.876 6.876 0 0 1 -5.15 6.656l-28.6 7.37a2.5 2.5 0 0 0 -1.529 3.692l15.013 25.436a6.878 6.878 0 0 1 -1.062 8.351l-15.033 15.032a6.875 6.875 0 0 1 -8.347 1.065l-25.439-15.016a2.5 2.5 0 0 0 -3.692 1.529l-7.37 28.6a6.877 6.877 0 0 1 -6.657 5.153h-21.264a6.875 6.875 0 0 1 -6.655-5.151c-1.975-7.641-7.125-27.58-7.351-28.521a2.5 2.5 0 0 0 -3.788-1.566c-.853.521-18.569 10.966-25.36 14.967a6.878 6.878 0 0 1 -8.35-1.062l-15.033-15.03a6.877 6.877 0 0 1 -1.064-8.348l15.015-25.439a2.5 2.5 0 0 0 -1.529-3.692l-28.6-7.369a6.877 6.877 0 0 1 -5.153-6.657v-21.259a6.876 6.876 0 0 1 5.15-6.656l28.605-7.371a2.5 2.5 0 0 0 1.529-3.692l-15.016-25.436a6.878 6.878 0 0 1 1.063-8.35l15.033-15.032a6.874 6.874 0 0 1 8.347-1.065l25.439 15.016a2.5 2.5 0 0 0 3.692-1.529l7.371-28.6a6.874 6.874 0 0 1 6.655-5.155h21.259a6.876 6.876 0 0 1 6.656 5.149l7.371 28.6a2.5 2.5 0 0 0 3.692 1.53l25.436-15.009a6.878 6.878 0 0 1 8.35 1.063l15.032 15.032a6.876 6.876 0 0 1 1.065 8.348l-15.015 25.438a2.5 2.5 0 0 0 1.529 3.692l28.6 7.37a6.877 6.877 0 0 1 5.152 6.657z" fill="#846f75"/><path d="m138.863 169.524h-21.688a2.5 2.5 0 0 1 -2.5-2.5v-14.272a2.5 2.5 0 0 1 5 0v11.772h16.688v-11.772a2.5 2.5 0 0 1 5 0v14.272a2.5 2.5 0 0 1 -2.5 2.5z" fill="#ebe7f2"/><path d="m150.088 169.524h-44.137a2.5 2.5 0 0 1 -2.5-2.5v-21.493a13.93 13.93 0 0 1 13.915-13.914h21.307a13.93 13.93 0 0 1 13.915 13.914v21.493a2.5 2.5 0 0 1 -2.5 2.5zm-41.637-5h39.137v-18.993a8.925 8.925 0 0 0 -8.915-8.914h-21.307a8.925 8.925 0 0 0 -8.915 8.914z" fill="#65c1d6"/><path d="m128.02 128.715a16.2 16.2 0 1 1 16.2-16.2 16.216 16.216 0 0 1 -16.2 16.2zm0-27.4a11.2 11.2 0 1 0 11.2 11.2 11.211 11.211 0 0 0 -11.2-11.195z" fill="#65c1d6"/><path d="m84.225 159.68a2.5 2.5 0 0 1 -2.5-2.5v-14.271a2.5 2.5 0 0 1 5 0v14.271a2.5 2.5 0 0 1 -2.5 2.5z" fill="#ebe7f2"/><path d="m105.661 159.68h-32.661a2.5 2.5 0 0 1 -2.5-2.5v-21.492a13.931 13.931 0 0 1 13.915-13.916h21.307a13.839 13.839 0 0 1 13.746 11.748 2.5 2.5 0 1 1 -4.939.773 8.865 8.865 0 0 0 -8.807-7.521h-21.307a8.926 8.926 0 0 0 -8.915 8.916v18.992h30.161a2.5 2.5 0 0 1 0 5z" fill="#65c1d6"/><path d="m95.068 118.872a16.2 16.2 0 1 1 16.2-16.2 16.216 16.216 0 0 1 -16.2 16.2zm0-27.4a11.2 11.2 0 1 0 11.2 11.2 11.211 11.211 0 0 0 -11.2-11.196z" fill="#65c1d6"/><path d="m171.775 159.68a2.5 2.5 0 0 1 -2.5-2.5v-14.271a2.5 2.5 0 0 1 5 0v14.271a2.5 2.5 0 0 1 -2.5 2.5z" fill="#ebe7f2"/><g fill="#65c1d6"><path d="m183 159.68h-32.624a2.5 2.5 0 0 1 0-5h30.124v-18.992a8.926 8.926 0 0 0 -8.915-8.916h-21.307a8.873 8.873 0 0 0 -8.8 7.478 2.5 2.5 0 0 1 -4.936-.8 13.854 13.854 0 0 1 13.736-11.679h21.307a13.931 13.931 0 0 1 13.915 13.917v21.492a2.5 2.5 0 0 1 -2.5 2.5z"/><path d="m160.932 118.872a16.2 16.2 0 1 1 16.2-16.2 16.216 16.216 0 0 1 -16.2 16.2zm0-27.4a11.2 11.2 0 1 0 11.2 11.2 11.211 11.211 0 0 0 -11.2-11.196z"/><path d="m127.876 91.476a2.5 2.5 0 0 1 -2.5-2.5v-20.684a2.5 2.5 0 0 1 5 0v20.684a2.5 2.5 0 0 1 -2.5 2.5z"/><path d="m138.941 76.253a2.492 2.492 0 0 1 -1.767-.732l-9.154-9.154-9.155 9.154a2.5 2.5 0 0 1 -3.535-3.535l10.922-10.922a2.5 2.5 0 0 1 3.535 0l10.922 10.922a2.5 2.5 0 0 1 -1.768 4.267z"/></g></svg>